<svg xmlns="http://www.w3.org/2000/svg" viewBox="0 0 540 252" style="width:100%;max-width:540px;height:auto">
<style>
  .fd-bg      { fill: var(--fd-bg, #ffffff); }
  .fd-title   { fill: var(--fd-text, #002a3a); }
  .fd-field   { fill: var(--fd-field, #6983ff); stroke: var(--fd-border, #30176e); stroke-width: 1; }
  .fd-pad     { fill: url(#fd-hatch); stroke: var(--fd-pad-stroke, #b9c2cc); stroke-width: 1; }
  .fd-flex    { fill: none; stroke: var(--fd-muted, #666666); stroke-width: 1; stroke-dasharray: 4 3; }
  .fd-extra   { fill: var(--fd-field, #6983ff); fill-opacity: 0.55; stroke: var(--fd-border, #30176e); stroke-width: 1; stroke-dasharray: 5 3; }
  .fd-plus    { fill: var(--fd-muted, #666666); }
  .fd-label   { fill: var(--fd-field-text, #ffffff); }
  .fd-padlbl  { fill: var(--fd-muted, #666666); }
  .fd-callout { fill: var(--fd-text, #002a3a); }
  .fd-leader  { stroke: var(--fd-muted, #666666); stroke-width: 1; fill: none; }
  .fd-ruler   { stroke: var(--fd-muted, #666666); stroke-width: 1; }
  .fd-rlbl    { fill: var(--fd-muted, #666666); }
  .fd-accent  { fill: var(--fd-accent, #1e8e3e); }
  text        { font-family: var(--fd-font, 'Fira Mono', Consolas, Menlo, Monaco, 'Courier New', monospace); }
  .fd-hatchbg { fill: var(--fd-pad, #f5f7f7); }
  .fd-hatchln { stroke: var(--fd-pad-stroke, #b9c2cc); stroke-width: 1.5; }
</style>
<rect class="fd-bg" width="100%" height="100%" rx="8"/>
<defs><pattern id="fd-hatch" width="6" height="6" patternTransform="rotate(45)" patternUnits="userSpaceOnUse"><rect class="fd-hatchbg" width="6" height="6"/><line class="fd-hatchln" x1="0" y1="0" x2="0" y2="6"/></pattern></defs>
<text class="fd-title" x="24.0" y="38.0" font-size="15" font-weight="700" text-anchor="start">Valkey 9.1: ptr removed from embstr objects (PR 2516)</text>
<rect class="fd-field" x="24.0" y="132.0" width="5.0" height="56" rx="4"/>
<rect class="fd-field" x="29.0" y="132.0" width="5.0" height="56" rx="4"/>
<rect class="fd-field" x="34.0" y="132.0" width="30.0" height="56" rx="4"/>
<rect class="fd-field" x="64.0" y="132.0" width="3.8" height="56" rx="4"/>
<rect class="fd-field" x="67.8" y="132.0" width="36.2" height="56" rx="4"/>
<rect class="fd-extra" x="104.0" y="132.0" width="140.0" height="56" rx="4"/>
<rect class="fd-extra" x="244.0" y="132.0" width="250.0" height="56" rx="4"/>
<text class="fd-callout" x="369.0" y="165.0" font-size="15" font-weight="700" text-anchor="middle">value sds (20B + hdr)</text>
<text class="fd-callout" x="46.3" y="70.0" font-size="12" font-weight="600" text-anchor="middle">type:4</text>
<path class="fd-leader" d="M 46.3 74.0 V 84.0 H 26.5 V 131.0"/>
<text class="fd-callout" x="115.8" y="70.0" font-size="12" font-weight="600" text-anchor="middle">encoding:4</text>
<path class="fd-leader" d="M 115.8 74.0 V 92.0 H 31.5 V 131.0"/>
<text class="fd-callout" x="185.4" y="70.0" font-size="12" font-weight="600" text-anchor="middle">lru:24</text>
<path class="fd-leader" d="M 185.4 74.0 V 100.0 H 49.0 V 131.0"/>
<text class="fd-callout" x="243.7" y="70.0" font-size="12" font-weight="600" text-anchor="middle">flags:3</text>
<path class="fd-leader" d="M 243.7 74.0 V 108.0 H 65.9 V 131.0"/>
<text class="fd-callout" x="320.7" y="70.0" font-size="12" font-weight="600" text-anchor="middle">refcount:29</text>
<path class="fd-leader" d="M 320.7 74.0 V 116.0 H 85.9 V 131.0"/>
<text class="fd-callout" x="442.3" y="70.0" font-size="12" font-weight="600" text-anchor="middle">key sds (10B + hdr)</text>
<path class="fd-leader" d="M 442.3 74.0 V 124.0 H 174.0 V 131.0"/>
<line class="fd-ruler" x1="24" y1="196" x2="494.0" y2="196"/>
<line class="fd-ruler" x1="24.0" y1="196" x2="24.0" y2="202"/>
<text class="fd-rlbl" x="24.0" y="216.0" font-size="11" font-weight="600" text-anchor="middle">0</text>
<line class="fd-ruler" x1="104.0" y1="196" x2="104.0" y2="202"/>
<text class="fd-rlbl" x="104.0" y="216.0" font-size="11" font-weight="600" text-anchor="middle">8</text>
<text class="fd-accent" x="24.0" y="240.0" font-size="13" font-weight="700" text-anchor="start">▼ 47 bytes — 15% smaller (val_ptr elided when value is embedded)</text>
</svg>