<svg xmlns="http://www.w3.org/2000/svg" viewBox="0 0 706 244" width="706" height="244">
<style>
  .fd-background      { fill: var(--fd-background, #ffffff); }
  .fd-title   { fill: var(--fd-text, #002a3a); }
  .fd-field-box   { fill: var(--fd-field-fill, #6983ff); stroke: var(--fd-field-border, #30176e); stroke-width: 1; }
  .fd-padding-box     { fill: url(#fd-hatch); stroke: var(--fd-padding-stroke, #b9c2cc); stroke-width: 1; }
  .fd-flexible-array    { fill: none; stroke: var(--fd-muted, #666666); stroke-width: 1; stroke-dasharray: 4 3; }
  .fd-extra-box   { fill: var(--fd-field-fill, #6983ff); fill-opacity: 0.55; stroke: var(--fd-field-border, #30176e); stroke-width: 1; stroke-dasharray: 5 3; }
  .fd-allocation-plus    { fill: var(--fd-muted, #666666); }
  .fd-field-label   { fill: var(--fd-field-text, #ffffff); }
  .fd-padding-label  { fill: var(--fd-muted, #666666); }
  .fd-callout-label { fill: var(--fd-text, #002a3a); }
  .fd-leader-line  { stroke: var(--fd-muted, #666666); stroke-width: 1; fill: none; }
  .fd-ruler-line   { stroke: var(--fd-muted, #666666); stroke-width: 1; }
  .fd-cache-line   { stroke: var(--fd-text, #002a3a); stroke-width: 3; stroke-dasharray: 7 4; opacity: 0.8; }
  .fd-cache-line-label    { fill: var(--fd-text, #002a3a); }
  .fd-pointer-arrow  { stroke: var(--fd-text, #002a3a); stroke-width: 1.5; fill: none; }
  .fd-pointer-head   { fill: var(--fd-text, #002a3a); }
  .fd-ruler-label    { fill: var(--fd-muted, #666666); }
  .fd-note  { fill: var(--fd-highlight, #1e8e3e); }
  .fd-note-plain { fill: var(--fd-text, #002a3a); }
  text        { font-family: var(--fd-font, 'Fira Mono', Consolas, Menlo, Monaco, 'Courier New', monospace); }
  .fd-hatch-background { fill: var(--fd-padding-fill, #f5f7f7); }
  .fd-hatch-lines { stroke: var(--fd-padding-stroke, #b9c2cc); stroke-width: 1.5; }
  .fd-subdivision-line  { stroke: var(--fd-field-text, #ffffff); stroke-width: 1; stroke-dasharray: 2 3; opacity: 0.45; }
</style>
<rect class="fd-background" width="100%" height="100%" rx="8"/>
<defs><pattern id="fd-hatch" width="6" height="6" patternTransform="rotate(45)" patternUnits="userSpaceOnUse"><rect class="fd-hatch-background" width="6" height="6"/><line class="fd-hatch-lines" x1="0" y1="0" x2="0" y2="6"/></pattern></defs>
<text class="fd-title" x="24.0" y="38.0" font-size="15" font-weight="700" text-anchor="start">Valkey 9.1: the embedded data moves into the former ptr slot</text>
<rect class="fd-field-box" x="24.0" y="124.0" width="7.0" height="56" rx="4"/>
<rect class="fd-field-box" x="31.0" y="124.0" width="7.0" height="56" rx="4"/>
<rect class="fd-field-box" x="38.0" y="124.0" width="42.0" height="56" rx="4"/>
<rect class="fd-field-box" x="80.0" y="124.0" width="56.0" height="56" rx="4"/>
<rect class="fd-extra-box" x="136.0" y="124.0" width="14.0" height="56" rx="4"/>
<rect class="fd-extra-box" x="150.0" y="124.0" width="196.0" height="56" rx="4"/>
<line class="fd-subdivision-line" x1="192.0" y1="127.0" x2="192.0" y2="177.0"/>
<line class="fd-subdivision-line" x1="332.0" y1="127.0" x2="332.0" y2="177.0"/>
<rect class="fd-extra-box" x="346.0" y="124.0" width="336.0" height="56" rx="4"/>
<line class="fd-subdivision-line" x1="388.0" y1="127.0" x2="388.0" y2="177.0"/>
<line class="fd-subdivision-line" x1="668.0" y1="127.0" x2="668.0" y2="177.0"/>
<text class="fd-callout-label" x="248.0" y="157.0" font-size="15" font-weight="700" text-anchor="middle">key sds (10B + hdr)</text>
<text class="fd-callout-label" x="514.0" y="157.0" font-size="15" font-weight="700" text-anchor="middle">value sds (20B + hdr)</text>
<text class="fd-callout-label" x="46.3" y="70.0" font-size="12" font-weight="600" text-anchor="middle">type:4</text>
<path class="fd-leader-line" d="M 46.3 74.0 V 84.0 H 27.5 V 123.0"/>
<text class="fd-callout-label" x="115.8" y="70.0" font-size="12" font-weight="600" text-anchor="middle">encoding:4</text>
<path class="fd-leader-line" d="M 115.8 74.0 V 92.0 H 34.5 V 123.0"/>
<text class="fd-callout-label" x="185.4" y="70.0" font-size="12" font-weight="600" text-anchor="middle">lru:24</text>
<path class="fd-leader-line" d="M 185.4 74.0 V 100.0 H 59.0 V 123.0"/>
<text class="fd-callout-label" x="247.4" y="70.0" font-size="12" font-weight="600" text-anchor="middle">refcount</text>
<path class="fd-leader-line" d="M 247.4 74.0 V 108.0 H 108.0 V 123.0"/>
<text class="fd-callout-label" x="331.8" y="70.0" font-size="12" font-weight="600" text-anchor="middle">key hdr size</text>
<path class="fd-leader-line" d="M 331.8 74.0 V 116.0 H 143.0 V 123.0"/>
<line class="fd-ruler-line" x1="24.0" y1="188" x2="682.0" y2="188"/>
<line class="fd-ruler-line" x1="24.0" y1="188" x2="24.0" y2="194"/>
<text class="fd-ruler-label" x="24.0" y="208.0" font-size="11" font-weight="600" text-anchor="middle">0</text>
<line class="fd-ruler-line" x1="136.0" y1="188" x2="136.0" y2="194"/>
<text class="fd-ruler-label" x="136.0" y="208.0" font-size="11" font-weight="600" text-anchor="middle">8</text>
<line class="fd-ruler-line" x1="248.0" y1="188" x2="248.0" y2="194"/>
<text class="fd-ruler-label" x="248.0" y="208.0" font-size="11" font-weight="600" text-anchor="middle">16</text>
<line class="fd-ruler-line" x1="360.0" y1="188" x2="360.0" y2="194"/>
<text class="fd-ruler-label" x="360.0" y="208.0" font-size="11" font-weight="600" text-anchor="middle">24</text>
<line class="fd-ruler-line" x1="472.0" y1="188" x2="472.0" y2="194"/>
<text class="fd-ruler-label" x="472.0" y="208.0" font-size="11" font-weight="600" text-anchor="middle">32</text>
<line class="fd-ruler-line" x1="584.0" y1="188" x2="584.0" y2="194"/>
<text class="fd-ruler-label" x="584.0" y="208.0" font-size="11" font-weight="600" text-anchor="middle">40</text>
<line class="fd-ruler-line" x1="682.0" y1="188" x2="682.0" y2="194"/>
<text class="fd-ruler-label" x="682.0" y="208.0" font-size="11" font-weight="600" text-anchor="middle">47</text>
<text class="fd-note" x="24.0" y="232.0" font-size="13" font-weight="700" text-anchor="start">▼ 8 bytes saved on every embstr object</text>
</svg>